<svg xmlns="http://www.w3.org/2000/svg" width="440" height="64" viewBox="0 0 440 64"><defs><linearGradient id="grad" x1="0%" x2="100%" y1="0%" y2="0%"><stop offset="0%" stop-color="#059669"/><stop offset="55%" stop-color="#0d9488"/><stop offset="100%" stop-color="#0891b2"/></linearGradient><linearGradient id="gloss" x1="0" x2="0" y1="0" y2="1"><stop offset="0%" stop-color="#fff" stop-opacity=".28"/><stop offset="100%" stop-color="#fff" stop-opacity="0"/></linearGradient><filter id="shadow" width="120%" height="140%" x="-10%" y="-15%"><feDropShadow dx="0" dy="3" flood-color="#000" flood-opacity=".28" stdDeviation="3.5"/></filter></defs><rect width="434" height="56" x="3" y="3" fill="url(#grad)" filter="url(#shadow)" rx="28"/><rect width="434" height="27" x="3" y="3" fill="url(#gloss)" rx="27"/><rect width="433" height="55" x="3.5" y="3.5" fill="none" stroke="#fff" stroke-opacity=".35" stroke-width="1" rx="27.5"/><g><path fill="#fff" d="M57 21 c-2 -6.5 -9.5 -7.5 -9.5 -3.2 c0 3.2 5.2 3.7 9.5 3.2 z"/><path fill="#fff" d="M59 21 c2 -6.5 9.5 -7.5 9.5 -3.2 c0 3.2 -5.2 3.7 -9.5 3.2 z"/><rect width="30" height="9" x="43" y="22" fill="#fff" rx="2"/><rect width="24" height="13" x="46" y="33" fill="#fff" rx="2"/><rect width="5" height="24" x="55.5" y="22" fill="#0d9488"/></g><text x="234" y="30" fill="#fff" font-family="Arial, Helvetica, sans-serif" font-size="20" font-weight="bold" text-anchor="middle">Claim your free module</text><text x="234" y="48" fill="#fff" fill-opacity=".92" font-family="Arial, Helvetica, sans-serif" font-size="11.5" text-anchor="middle">7-min video · hands-on tutorial · AI assistant</text><path fill="none" stroke="#fff" stroke-linecap="round" stroke-linejoin="round" stroke-width="3.5" d="M404 24 l9 8 l-9 8"/></svg>