<svg xmlns="http://www.w3.org/2000/svg" viewBox="0 0 800 600"><defs><marker id="arrowhead" markerHeight="7" markerWidth="10" orient="auto" refX="0" refY="3.5"><polygon fill="#34495e" points="0 0 10 3.5 0 7"/></marker></defs><rect width="100%" height="100%" fill="#ecf0f1"/><text x="400" y="40" fill="#2c3e50" font-family="Arial, sans-serif" font-size="24" font-weight="bold" text-anchor="middle">Propositions Method: Ingestion Phase</text><g transform="translate(0, 20)"><rect width="140" height="70" x="50" y="80" fill="#3498db" stroke="#34495e" stroke-width="2" rx="5" ry="5"/><text x="120" y="120" fill="#fff" font-family="Arial, sans-serif" font-size="16" text-anchor="middle">Input Text</text><rect width="140" height="70" x="240" y="80" fill="#e74c3c" stroke="#34495e" stroke-width="2" rx="5" ry="5"/><text x="310" y="110" fill="#fff" font-family="Arial, sans-serif" font-size="16" text-anchor="middle">Generate</text><text x="310" y="135" fill="#fff" font-family="Arial, sans-serif" font-size="16" text-anchor="middle">Propositions</text><rect width="140" height="70" x="430" y="80" fill="#f39c12" stroke="#34495e" stroke-width="2" rx="5" ry="5"/><text x="500" y="120" fill="#fff" font-family="Arial, sans-serif" font-size="16" text-anchor="middle">Quality Check</text><rect width="140" height="70" x="620" y="80" fill="#2ecc71" stroke="#34495e" stroke-width="2" rx="5" ry="5"/><text x="690" y="110" fill="#fff" font-family="Arial, sans-serif" font-size="16" text-anchor="middle">Index</text><text x="690" y="135" fill="#fff" font-family="Arial, sans-serif" font-size="16" text-anchor="middle">Propositions</text></g><rect width="700" height="380" x="50" y="200" fill="#fff" stroke="#34495e" stroke-width="2" rx="5" ry="5"/><text x="400" y="230" fill="#2c3e50" font-family="Arial, sans-serif" font-size="20" font-weight="bold" text-anchor="middle">Example: Proposition Generation</text><rect width="660" height="60" x="70" y="250" fill="#bdc3c7" stroke="#34495e" stroke-width="2" rx="5" ry="5"/><text x="400" y="275" fill="#34495e" font-family="Arial, sans-serif" font-size="16" text-anchor="middle"><tspan x="400" dy="0">The Eiffel Tower, built in 1889, is a wrought-iron</tspan> <tspan x="400" dy="25">lattice tower located in Paris, France.</tspan></text><rect width="660" height="50" x="70" y="350" fill="#3498db" stroke="#34495e" stroke-width="2" rx="5" ry="5"/><text x="400" y="380" fill="#fff" font-family="Arial, sans-serif" font-size="16" text-anchor="middle">The Eiffel Tower was built in 1889.</text><rect width="660" height="50" x="70" y="410" fill="#3498db" stroke="#34495e" stroke-width="2" rx="5" ry="5"/><text x="400" y="440" fill="#fff" font-family="Arial, sans-serif" font-size="16" text-anchor="middle">The Eiffel Tower is a wrought-iron lattice tower.</text><rect width="660" height="50" x="70" y="470" fill="#3498db" stroke="#34495e" stroke-width="2" rx="5" ry="5"/><text x="400" y="500" fill="#fff" font-family="Arial, sans-serif" font-size="16" text-anchor="middle">The Eiffel Tower is located in Paris, France.</text><line x1="190" x2="240" y1="115" y2="115" stroke="#34495e" stroke-width="2" marker-end="url(#arrowhead)"/><line x1="380" x2="430" y1="115" y2="115" stroke="#34495e" stroke-width="2" marker-end="url(#arrowhead)"/><line x1="570" x2="620" y1="115" y2="115" stroke="#34495e" stroke-width="2" marker-end="url(#arrowhead)"/><path fill="none" stroke="#34495e" stroke-width="2" marker-end="url(#arrowhead)" d="M400 310 L400 330 L400 350"/></svg>