<svg xmlns="http://www.w3.org/2000/svg" viewBox="0 0 800 400"><rect width="800" height="400" fill="#f0f0f0"/><text x="400" y="30" font-family="Arial, sans-serif" font-size="20" font-weight="bold" text-anchor="middle">Traditional vs Context-Enriched Vector Search</text><rect width="300" height="300" x="50" y="60" fill="#fff" stroke="#000"/><text x="200" y="90" font-family="Arial, sans-serif" font-size="16" font-weight="bold" text-anchor="middle">Traditional Search</text><rect width="260" height="40" x="70" y="110" fill="#f99" stroke="#000"/><rect width="260" height="40" x="70" y="160" fill="#f99" stroke="#000"/><rect width="260" height="40" x="70" y="210" fill="#f99" stroke="#000"/><text x="200" y="135" font-family="Arial, sans-serif" font-size="14" text-anchor="middle">Isolated Chunk 1</text><text x="200" y="185" font-family="Arial, sans-serif" font-size="14" text-anchor="middle">Isolated Chunk 2</text><text x="200" y="235" font-family="Arial, sans-serif" font-size="14" text-anchor="middle">Isolated Chunk 3</text><text x="200" y="280" font-family="Arial, sans-serif" font-size="14" font-style="italic" text-anchor="middle">Limited context</text><text x="200" y="300" font-family="Arial, sans-serif" font-size="14" font-style="italic" text-anchor="middle">Potential coherence issues</text><rect width="300" height="300" x="450" y="60" fill="#fff" stroke="#000"/><text x="600" y="90" font-family="Arial, sans-serif" font-size="16" font-weight="bold" text-anchor="middle">Context-Enriched Search</text><rect width="260" height="40" x="470" y="110" fill="#9f9" stroke="#000"/><rect width="260" height="40" x="470" y="150" fill="#ff9" stroke="#000"/><rect width="260" height="40" x="470" y="190" fill="#9f9" stroke="#000"/><text x="600" y="135" font-family="Arial, sans-serif" font-size="14" text-anchor="middle">Context Before</text><text x="600" y="175" font-family="Arial, sans-serif" font-size="14" text-anchor="middle">Retrieved Chunk</text><text x="600" y="215" font-family="Arial, sans-serif" font-size="14" text-anchor="middle">Context After</text><text x="600" y="260" font-family="Arial, sans-serif" font-size="14" font-style="italic" text-anchor="middle">Enhanced coherence</text><text x="600" y="280" font-family="Arial, sans-serif" font-size="14" font-style="italic" text-anchor="middle">More comprehensive information</text><text x="600" y="300" font-family="Arial, sans-serif" font-size="14" font-style="italic" text-anchor="middle">Better understanding</text><path fill="none" stroke="#000" stroke-width="2" marker-end="url(#arrowhead)" d="M 370 200 L 430 200"/><defs><marker id="arrowhead" markerHeight="7" markerWidth="10" orient="auto" refX="0" refY="3.5"><polygon points="0 0 10 3.5 0 7"/></marker></defs></svg>